# xmcd CD database file
#
# Track frame offsets:
#	150
#	32187
#	63762
#	93375
#	117102
#	137617
#	172735
#	208777
#	233715
#	264370
#
# Disc length: 3896 seconds
#
# Revision: 0
# Processed by: cddbd v1.5.1PL0 Copyright (c) Steve Scherf et al.
# Submitted via: CDex 1.51
#
DISCID=7c0f360a
DTITLE=Andy Fusco - Big Man's Blues
DYEAR=1996
DGENRE=Jazz
TTITLE0=Embraceable You
TTITLE1=Stablemates
TTITLE2=Big Man's Blues
TTITLE3=Love Letters
TTITLE4=Airegin
TTITLE5=Pensativa
TTITLE6=My Old Flame
TTITLE7=Scooter
TTITLE8=Little Melonae
TTITLE9=Con-Ruthsion
EXTD=YEAR: 1996
EXTT0=
EXTT1=
EXTT2=
EXTT3=
EXTT4=
EXTT5=
EXTT6=
EXTT7=
EXTT8=
EXTT9=
PLAYORDER=
